# xmcd
#
# Track frame offsets: 
#        150
#        62812
#        97252
#        149731
#        216439
#        265544
#
# Disc length: 4056 seconds
#
# Revision: 0
# Processed by: cddbd v1.5.2PL0 Copyright (c) Steve Scherf et al.
# Submitted via: ExactAudioCopy v0.95b4
#
DISCID=620fd606
DTITLE=Derek and the Dominos - 1970-10-23 - Live At The Fillmore - CD1
DYEAR=1970
DGENRE=Blues
TTITLE0=Got To Get Better In A Little While
TTITLE1=Key To The Highway
TTITLE2=Tell The Truth
TTITLE3=Why Does Love Got To Be So Sad
TTITLE4=Blues Power
TTITLE5=Have You Ever Loved A Woman
EXTD=
EXTT0=
EXTT1=
EXTT2=
EXTT3=
EXTT4=
EXTT5=
PLAYORDER=
